<?xml version="1.0" encoding="UTF-8" standalone="no"?>
<!-- Created with Inkscape (http://www.inkscape.org/) -->

<svg
   xmlns:dc="http://purl.org/dc/elements/1.1/"
   xmlns:cc="http://creativecommons.org/ns#"
   xmlns:rdf="http://www.w3.org/1999/02/22-rdf-syntax-ns#"
   xmlns:svg="http://www.w3.org/2000/svg"
   xmlns="http://www.w3.org/2000/svg"
   xmlns:sodipodi="http://sodipodi.sourceforge.net/DTD/sodipodi-0.dtd"
   xmlns:inkscape="http://www.inkscape.org/namespaces/inkscape"
   width="4626.0991mm"
   height="2090.155mm"
   viewBox="0 0 16391.69 7406.0609"
   id="svg2"
   version="1.1"
   inkscape:version="0.91 r13725">
  <defs
     id="defs4" />
  <sodipodi:namedview
     id="base"
     pagecolor="#ffffff"
     bordercolor="#000000"
     borderopacity="0"
     inkscape:pageopacity="0"
     inkscape:pageshadow="2"
     inkscape:zoom="0.032679497"
     inkscape:cx="3718.3542"
     inkscape:cy="5723.368"
     inkscape:document-units="px"
     inkscape:current-layer="layer1"
     showgrid="false"
     inkscape:window-width="1920"
     inkscape:window-height="1017"
     inkscape:window-x="-8"
     inkscape:window-y="-8"
     inkscape:window-maximized="1"
     inkscape:showpageshadow="false"
     showborder="false"
     fit-margin-top="0"
     fit-margin-left="0"
     fit-margin-right="0"
     fit-margin-bottom="0" />
  <metadata
     id="metadata7">
    <rdf:RDF>
      <cc:Work
         rdf:about="">
        <dc:format>image/svg+xml</dc:format>
        <dc:type
           rdf:resource="http://purl.org/dc/dcmitype/StillImage" />
        <dc:title></dc:title>
      </cc:Work>
    </rdf:RDF>
  </metadata>
  <g
     inkscape:label="Layer 1"
     inkscape:groupmode="layer"
     id="layer1"
     transform="translate(4322.688,1605.2296)">
    <path
       style="fill:#9e9e9e;fill-opacity:1"
       d="m -4319.2295,5142.4872 0,-658.3712 39.3975,-33.1536 c 47.2263,-39.7604 64.57,-41.3579 85.4653,-7.899 8.6561,13.8945 23.0403,22.4741 31.8873,19.0816 12.4111,-4.7735 15.2754,-68.5492 12.4111,-278.0285 -4.4552,-336.0734 6.6831,-417.5018 77.6688,-560.2801 l 54.1,-108.8504 3.8188,-700.6729 3.8188,-700.6729 -83.7532,-145.8633 -83.7533,-145.8633 0,-117.1158 c 0,-116.7734 0,-117.1158 32.4601,-117.1158 17.8212,0 35.7697,8.6432 39.7794,19.2087 5.0918,13.4486 26.1589,19.2087 70.031,19.2087 l 62.6923,0 0,-471.2236 0,-471.22307 -51.2359,-50.02028 -51.236,-50.02026 0,-125.46062 c 0,-117.57022 1.273,-125.46123 25.9682,-125.46123 14.3204,0 29.3413,8.64331 33.4146,19.20871 3.819,10.56544 20.9399,19.20869 37.6155,19.20869 l 30.2324,0 3.1824,-502.63535 3.1824,-502.636 39.7793,-83.23914 c 21.8947,-45.78127 63.6473,-114.77922 92.8422,-153.32709 29.2139,-38.55119 53.0816,-77.84936 53.0816,-87.3354 0,-9.48339 -17.5029,-42.71366 -38.9521,-73.83836 -54.9909,-79.9267 -78.0248,-152.692 -79.0051,-249.522 -1.2728,-101.8916 28.0685,-173.821 103.3056,-255.5617 l 53.0818,-57.6262 52.5725,57.607 c 84.8479,92.9578 106.8443,145.5674 107.1819,256.4069 0.2734,83.4916 -5.0918,107.7827 -42.1345,182.4567 -40.9888,83.242 -79.0497,121.35899 -105.1261,105.24548 -23.4857,-14.53058 -12.602,3.75521 39.5249,66.00075 28.6413,34.22316 79.0436,116.96829 112.0509,183.87981 l 60.0191,121.657 3.1824,496.23322 3.1824,496.23251 37.9974,0 c 25.2678,0 37.9973,-6.45384 37.9973,-19.20871 0,-10.67362 11.3928,-19.20871 25.6497,-19.20871 23.8678,0 25.5863,8.53509 25.5863,122.89367 l 0,122.89308 -51.236,58.19259 -51.2359,58.19259 0,465.61632 0,465.6163 70.4318,0 c 54.1001,0 70.4383,-4.4553 70.4383,-19.2087 0,-11.9529 12.093,-19.2087 32.0145,-19.2087 31.8873,0 32.0146,0.5391 32.0146,120.1346 l 0,120.1346 -83.1678,145.5896 -83.174,145.5903 0,641.1498 c 0,401.6397 5.0917,669.5354 13.684,717.1365 7.5742,41.791 30.6781,106.2941 51.4269,143.336 63.2018,113.1075 75.3073,195.1064 75.5175,512.122 l 0.2673,284.9335 2209.0328,0 2209.0392,0 0,-417.037 c 0,-245.1802 5.0918,-426.6102 12.4113,-440.2668 6.8102,-12.7802 35.7697,-32.5619 64.29,-43.9803 45.2531,-18.0947 128.7708,-20.7488 653.9807,-20.7488 l 602.1209,0 -27.7502,-28.813 c -87.1584,-90.4561 -189.0191,-297.8088 -217.113,-441.9511 -25.2044,-129.2336 -9.8653,-383.6947 30.6779,-509.1643 60.0191,-185.7975 186.9697,-358.2838 416.3414,-565.713 250.7631,-226.7754 420.2109,-341.3224 860.8085,-581.8984 102.7073,-56.0794 207.8779,-119.3848 233.712,-140.6824 l 46.9715,-38.7229 0,-140.2509 0,-140.25032 -35.1967,-12.51303 c -70.2599,-24.96239 -99.7989,-48.74731 -128.7965,-103.71618 -49.7719,-94.28941 -13.6839,-196.43412 89.749,-254.23973 l 55.0546,-30.76701 -40.9887,46.99066 c -54.3545,62.32966 -66.8805,127.97593 -33.0329,173.54664 34.3697,46.36058 109.0275,69.88838 194.9513,61.4577 159.3661,-15.6381 200.1068,-133.21857 84.5999,-244.15935 -28.7051,-27.61649 -32.2694,-35.01226 -13.4297,-28.11293 95.4132,34.91681 169.6895,138.66546 154.9808,216.48682 -15.8481,83.95121 -57.028,127.96189 -151.7795,162.27409 l -35.1967,12.75488 0,147.84976 0,147.8497 58.3644,41.3579 c 32.0781,22.7475 168.9639,101.1283 304.1441,174.1844 359.7653,194.4312 591.2439,357.8057 825.2044,582.4152 209.9654,201.5692 325.415,375.6466 375.6897,566.4831 37.6794,142.9977 37.8702,370.1162 0.3877,511.1131 -33.1598,124.9298 -100.2567,264.8658 -168.4101,351.0821 -27.941,35.4007 -50.854,65.9703 -50.854,67.938 0,1.9734 260.7621,1.8461 579.4687,-0.2379 318.7132,-2.1003 604.6926,-0.1938 635.5106,4.2006 33.7965,4.8372 68.1151,20.1253 86.4389,38.4495 l 30.4233,30.4106 0,416.7766 0,416.7775 2202.6367,0 2202.63,0 0.304,-284.9339 c 0.189,-156.7133 5.728,-310.8658 12.92,-342.5602 7.001,-31.6962 37.042,-109.4915 66.918,-172.8817 l 54.291,-115.254 3.819,-687.3692 3.819,-687.3706 -84.956,-147.958 -84.957,-147.9586 -2.545,-115.5253 -2.546,-115.5252 35.197,0.01 c 19.348,0 35.196,5.7919 35.196,12.8185 0,7.0393 31.697,12.8058 70.433,12.8058 l 70.431,0 0,-462.2526 0,-462.25254 -51.235,-58.1926 -51.236,-58.19254 0,-119.85456 c 0,-111.31631 1.909,-119.85393 25.649,-119.85393 14.194,0 25.587,8.53508 25.587,19.20871 0,12.8058 12.793,19.20872 38.379,19.20872 l 38.379,0 0,-502.99693 0,-502.99699 45.19,-94.32377 c 24.822,-51.87875 61.482,-115.10503 81.385,-140.50481 72.284,-92.26031 72.64,-96.29166 15.848,-181.29496 -114.998,-172.2126 -101.689,-341.4599 39.652,-504.0823 l 43.535,-50.1221 53.336,56.5251 c 75.619,80.1362 106.011,150.5237 106.749,247.259 0.34,44.0629 -5.728,102.8212 -12.984,130.5734 -18.903,70.1314 -84.059,168.8507 -114.813,173.91185 -22.913,3.75522 -19.54,12.18855 32.142,80.3947 65.671,86.60012 112.229,173.56953 146.955,274.49848 21.64,62.97243 23.931,114.00222 23.931,541.34185 l 0,471.81748 32.015,0 c 19.921,0 32.014,-7.25581 32.014,-19.20872 0,-11.95295 12.093,-19.20871 32.015,-19.20871 31.823,0 32.014,0.76378 32.014,116.49079 l 0,116.49017 -51.236,58.19259 -51.236,58.19259 0,465.61633 0,465.6163 64.036,0 c 35.196,0 64.029,-5.7919 64.029,-12.8058 0,-7.0457 17.312,-12.8058 38.379,-12.8058 l 38.379,0 0,112.3862 0,112.3856 -83.658,144.4115 -83.651,144.4109 3.182,700.4517 3.183,700.4522 46.716,96.0446 c 71.724,147.5745 74.824,169.2005 74.901,522.2473 0,286.8949 2.545,324.662 20.876,331.7327 12.538,4.7733 25.522,-0.4622 32.651,-13.2068 16.039,-28.7049 51.426,-26.6492 92.097,5.3461 l 33.733,26.541 0,664.9836 0,664.9827 -8195.8414,0 -8195.8476,0 0,-658.3714 z m 448.2093,-5001.88387 c 0,-196.358428 -2.5458,-230.508279 -19.2213,-230.508279 -16.3574,0 -19.2215,34.146672 -19.2215,230.508279 0,196.35902 2.546,230.50825 19.2215,230.50825 16.3572,0 19.2213,-34.14667 19.2213,-230.50825 z m 201.9906,3.18235 -3.1822,-227.306172 -48.0538,-3.94613 -48.0535,-3.946151 0,231.280313 0,231.28159 51.4906,0 51.5541,0 -3.1824,-227.30679 z m 140.8639,1.01833 c -2.546,-167.066728 -7.7013,-227.643478 -19.476,-231.575635 -12.4113,-4.137024 -15.9755,46.691559 -15.9755,226.251565 0,198.86675 2.546,231.57498 19.476,231.57498 16.8667,0 19.0306,-30.62061 16.0391,-226.25091 z m 14845.0637,-4.26436 c 0,-184.975736 -2.546,-217.702461 -19.221,-217.702461 -16.358,0 -19.222,32.727343 -19.222,217.702461 0,184.97577 2.546,217.70186 19.222,217.70186 16.357,0 19.221,-32.72735 19.221,-217.70186 z m 204.899,0 0,-217.702461 -51.236,0 -51.236,0 0,217.702461 0,217.70186 51.236,0 51.236,0 0,-217.70186 z m 128.058,0 c 0,-136.5975327 -5.092,-217.702461 -12.857,-217.702461 -8.083,0 -12.793,81.1049283 -12.793,217.702461 0,136.59759 5.092,217.70186 12.793,217.70186 8.083,0 12.857,-81.10427 12.857,-217.70186 z"
       id="path4147"
       inkscape:connector-curvature="0" />
  </g>
</svg>
