<?xml version="1.0" encoding="UTF-8" standalone="no"?>
<!-- Created with Inkscape (http://www.inkscape.org/) -->
<svg id="svg2" xmlns:rdf="http://www.w3.org/1999/02/22-rdf-syntax-ns#" xmlns="http://www.w3.org/2000/svg" height="163.22mm" width="361.24mm" version="1.1" xmlns:cc="http://creativecommons.org/ns#" xmlns:dc="http://purl.org/dc/elements/1.1/" viewBox="0 0 1280 578.32755">
 <metadata id="metadata7">
  <rdf:RDF>
   <cc:Work rdf:about="">
    <dc:format>image/svg+xml</dc:format>
    <dc:type rdf:resource="http://purl.org/dc/dcmitype/StillImage"/>
    <dc:title/>
   </cc:Work>
  </rdf:RDF>
 </metadata>
 <g id="layer1" transform="translate(1566.4 491.25)">
  <path id="path4147" fill="#9e9e9e" d="m-1566.4 35.665v-51.411l3.0767-2.5889c3.6898-3.1047 5.042-3.2297 6.6738-0.61683 0.6773 1.0846 1.7981 1.7552 2.4905 1.49 0.9701-0.37141 1.1925-5.3529 0.969-21.711-0.3585-26.243 0.523-32.602 6.0649-43.751l4.2251-8.5 0.2901-54.714 0.2901-54.714-6.5401-11.39-6.5401-11.39v-9.1454c0-9.1187 0.01-9.1454 2.5314-9.1454 1.3922 0 2.7904 0.675 3.107 1.5 0.4031 1.0505 2.0417 1.5 5.4686 1.5h4.893v-36.797-36.797l-4-3.9059-4-3.9059v-9.797c0-9.1808 0.1278-9.797 2.0314-9.797 1.1172 0 2.2904 0.675 2.607 1.5s1.6375 1.5 2.9353 1.5h2.3598l0.2833-39.25 0.2832-39.25 3.1055-6.5c1.708-3.575 4.9705-8.9629 7.25-11.973 2.2795-3.0102 4.1445-6.0791 4.1445-6.8198 0-0.74071-1.3682-3.3354-3.0405-5.7659-4.2941-6.2413-6.0933-11.923-6.1696-19.485-0.08-7.9565 2.1902-13.573 8.067-19.956l4.1431-4.5 4.1065 4.4986c6.6262 7.2589 8.3436 11.367 8.3703 20.022 0.02 6.5197-0.4177 8.4166-3.2884 14.248-3.2 6.5002-6.1731 9.4767-8.2091 8.2184-1.836-1.1347-0.983 0.29057 3.0844 5.1539 2.235 2.6724 6.1725 9.1339 8.75 14.359l4.6863 9.5 0.2836 38.75 0.2836 38.75h2.9664c1.9701 0 2.9664-0.50378 2.9664-1.5 0-0.83333 0.8889-1.5 2-1.5 1.8611 0 2 0.66667 2 9.5966v9.5966l-4 4.5442-4 4.5442v36.359 36.359h5.5c4.2222 0 5.5-0.34848 5.5-1.5 0-0.93333 0.9444-1.5 2.5-1.5 2.489 0 2.5 0.0413 2.5 9.3811v9.3811l-6.4947 11.369-6.4946 11.369-0.01 50.066c0 31.363 0.396 52.283 1.069 56 0.5909 3.2635 2.3971 8.3003 4.0138 11.193 4.9364 8.8324 5.8806 15.236 5.8971 39.991l0.015 22.25h172.5 172.5v-32.566c0-19.146 0.4001-33.313 0.9708-34.38 0.534-0.9977 2.7931-2.5431 5.0203-3.4343 3.5321-1.4133 10.056-1.6202 51.068-1.6202h47.019l-2.1679-2.25c-6.8058-7.0635-14.76-23.255-16.954-34.511-1.9669-10.092-0.7698-29.962 2.3954-39.76 4.6871-14.509 14.6-27.978 32.511-44.176 19.582-17.708 32.814-26.653 67.22-45.439 8.0199-4.379 16.232-9.3226 18.25-10.986l3.6684-3.0238v-10.952-10.952l-2.75-0.97712c-5.4869-1.9496-7.7933-3.8068-10.058-8.099-3.8847-7.3629-1.0689-15.339 7.0085-19.853l4.2994-2.4026-3.2007 3.6694c-4.2455 4.8672-5.2222 9.9934-2.582 13.552 2.686 3.6202 8.5141 5.4574 15.224 4.7991 12.444-1.221 15.626-10.403 6.6062-19.066-2.2453-2.1566-2.521-2.7344-1.0474-2.1952 7.4508 2.7265 13.251 10.828 12.102 16.905-1.239 6.5556-4.4535 9.9924-11.852 12.672l-2.75 0.99589v11.545 11.545l4.5575 3.2294c2.5066 1.7762 13.194 7.897 23.75 13.602 28.094 15.183 46.169 27.94 64.439 45.48 16.396 15.74 25.411 29.334 29.337 44.236 2.9419 11.166 2.9595 28.902 0.0396 39.912-2.5871 9.7555-7.8287 20.683-13.15 27.415-2.185 2.7642-3.9728 5.1515-3.9729 5.3052-0.00016 0.15368 20.362 0.14535 45.25-0.0185 24.888-0.16386 47.219-0.0153 49.626 0.3301 2.637 0.37849 5.319 1.5715 6.75 3.0025l2.3744 2.3744v32.545 32.545h172 172l0.024-22.25c0.014-12.238 0.4686-24.275 1.0113-26.75 0.5428-2.475 2.8943-8.55 5.2256-13.5l4.2387-9 0.3124-53.676 0.3124-53.676-6.6341-11.554-6.634-11.554-0.1784-9.0212-0.1783-9.0212 2.75 0.00061c1.5125 0.00033 2.75 0.45061 2.75 1.0006 0 0.55 2.475 1 5.5 1h5.5v-36.097-36.097l-4-4.5442-4-4.5442v-9.3592c0-8.6925 0.1425-9.3592 2-9.3592 1.1111 0 2 0.66667 2 1.5 0 1 1 1.5 3 1.5h3v-39.278-39.278l3.5299-7.3656c1.9414-4.0511 4.8013-8.9884 6.3553-10.972 5.6446-7.2045 5.6722-7.5193 1.2397-14.157-8.9801-13.448-7.9407-26.664 3.0959-39.363l3.4014-3.9138 4.165 4.4138c5.905 6.2577 8.2781 11.754 8.336 19.308 0.026 3.4408-0.4294 8.0292-1.0129 10.196-1.4747 5.4764-6.5637 13.185-8.9653 13.58-1.7899 0.29455-1.5269 0.95189 2.5118 6.2779 5.128 6.7625 8.7637 13.554 11.475 21.435 1.6918 4.9172 1.8679 8.9022 1.8679 42.272v36.843h2.5c1.5556 0 2.5-0.56667 2.5-1.5s0.9444-1.5 2.5-1.5c2.4834 0 2.5 0.0602 2.5 9.0966v9.0966l-4 4.5442-4 4.5442v36.359 36.359h5c2.75 0 5-0.45 5-1s1.35-1 3-1h3v8.776 8.776l-6.5325 11.277-6.5325 11.277 0.2825 54.697 0.2825 54.697 3.6452 7.5c5.6009 11.524 5.8431 13.213 5.8492 40.781 0 22.403 0.1905 25.352 1.6294 25.904 0.9772 0.37497 1.9925-0.0357 2.5497-1.0314 1.2544-2.2415 4.0145-2.081 7.1916 0.41809l2.6349 2.0726v51.927l0.00044 51.927h-640-640v-51.411zm35-390.59c0-15.333-0.2222-18-1.5-18s-1.5 2.6667-1.5 18 0.2222 18 1.5 18 1.5-2.6667 1.5-18zm15.773 0.25-0.2731-17.75-3.75-0.31037-3.75-0.31036v18.06 18.06h4.0231 4.023l-0.273-17.75zm11 0.0824c-0.2017-13.046-0.6001-17.776-1.5231-18.083-0.9692-0.32238-1.25 3.6458-1.25 17.668 0 15.529 0.2151 18.083 1.5231 18.083 1.3169 0 1.4861-2.3912 1.25-17.668zm1159.2-0.3324c0-14.444-0.2255-17-1.5-17s-1.5 2.5556-1.5 17 0.2255 17 1.5 17 1.5-2.5556 1.5-17zm16 0v-17h-4-4v17 17h4 4v-17zm10 0c0-10.667-0.3725-17-1-17s-1 6.3333-1 17 0.3725 17 1 17 1-6.3333 1-17z"/>
 </g>
</svg>
