<?xml version="1.0" encoding="UTF-8" standalone="no"?>
<!-- Created with Inkscape (http://www.inkscape.org/) -->

<svg
   xmlns:dc="http://purl.org/dc/elements/1.1/"
   xmlns:cc="http://creativecommons.org/ns#"
   xmlns:rdf="http://www.w3.org/1999/02/22-rdf-syntax-ns#"
   xmlns:svg="http://www.w3.org/2000/svg"
   xmlns="http://www.w3.org/2000/svg"
   xmlns:sodipodi="http://sodipodi.sourceforge.net/DTD/sodipodi-0.dtd"
   xmlns:inkscape="http://www.inkscape.org/namespaces/inkscape"
   width="306.32794mm"
   height="138.40451mm"
   viewBox="0 0 1085.414 490.40967"
   id="svg2"
   version="1.1"
   inkscape:version="0.91 r13725">
  <defs
     id="defs4" />
  <sodipodi:namedview
     id="base"
     pagecolor="#ffffff"
     bordercolor="#000000"
     borderopacity="0"
     inkscape:pageopacity="0"
     inkscape:pageshadow="2"
     inkscape:zoom="1.3119418"
     inkscape:cx="542.707"
     inkscape:cy="245.20485"
     inkscape:document-units="px"
     inkscape:current-layer="layer1"
     showgrid="false"
     inkscape:window-width="1920"
     inkscape:window-height="1017"
     inkscape:window-x="-8"
     inkscape:window-y="-8"
     inkscape:window-maximized="1"
     inkscape:showpageshadow="false"
     showborder="false"
     fit-margin-top="0"
     fit-margin-left="0"
     fit-margin-right="0"
     fit-margin-bottom="0" />
  <metadata
     id="metadata7">
    <rdf:RDF>
      <cc:Work
         rdf:about="">
        <dc:format>image/svg+xml</dc:format>
        <dc:type
           rdf:resource="http://purl.org/dc/dcmitype/StillImage" />
        <dc:title></dc:title>
      </cc:Work>
    </rdf:RDF>
  </metadata>
  <g
     inkscape:label="Layer 1"
     inkscape:groupmode="layer"
     id="layer1"
     transform="translate(-10983.594,-5310.4213)">
    <path
       style="fill:#616161;fill-opacity:1"
       d="m 10983.816,5757.2374 0,-43.5956 2.609,-2.1953 c 3.127,-2.6329 4.275,-2.7386 5.659,-0.5231 0.573,0.9201 1.526,1.4882 2.111,1.2636 0.822,-0.3161 1.012,-4.5392 0.822,-18.4104 -0.295,-22.2539 0.443,-27.6458 5.143,-37.1002 l 3.583,-7.2078 0.252,-46.3967 0.253,-46.3967 -5.546,-9.6587 -5.546,-9.6587 0,-7.7551 c 0,-7.7324 0,-7.7551 2.15,-7.7551 1.18,0 2.368,0.5724 2.634,1.272 0.337,0.8905 1.732,1.2719 4.637,1.2719 l 4.152,0 0,-31.2032 0,-31.2031 -3.393,-3.3122 -3.393,-3.3122 0,-8.3077 c 0,-7.7852 0.08,-8.3077 1.72,-8.3077 0.948,0 1.943,0.5723 2.212,1.2719 0.253,0.6997 1.387,1.272 2.491,1.272 l 2.002,0 0.211,-33.2832 0.21,-33.2832 2.635,-5.5119 c 1.449,-3.0315 4.214,-7.6004 6.147,-10.1529 1.935,-2.5528 3.515,-5.155 3.515,-5.7831 0,-0.628 -1.159,-2.8284 -2.579,-4.8894 -3.641,-5.2925 -5.167,-10.1109 -5.232,-16.5227 -0.08,-6.747 1.859,-11.51 6.841,-16.9226 l 3.515,-3.8159 3.481,3.8146 c 5.619,6.1554 7.075,9.6391 7.098,16.9786 0.02,5.5286 -0.338,7.1371 -2.791,12.0818 -2.714,5.5121 -5.234,8.0361 -6.961,6.9691 -1.555,-0.9622 -0.834,0.2486 2.618,4.3704 1.896,2.2661 5.234,7.7453 7.419,12.176 l 3.975,8.0558 0.21,32.8593 0.211,32.8592 2.516,0 c 1.673,0 2.516,-0.4274 2.516,-1.272 0,-0.7068 0.755,-1.2719 1.699,-1.2719 1.58,0 1.694,0.5651 1.694,8.1377 l 0,8.1376 -3.393,3.8534 -3.393,3.8533 0,30.8319 0,30.8319 4.664,0 c 3.583,0 4.665,-0.295 4.665,-1.272 0,-0.7914 0.8,-1.2719 2.119,-1.2719 2.112,0 2.12,0.036 2.12,7.955 l 0,7.955 -5.507,9.6405 -5.507,9.6407 0,42.4552 c 0,26.5955 0.337,44.3349 0.906,47.4869 0.501,2.7673 2.031,7.0385 3.405,9.4913 4.185,7.4897 4.987,12.9194 5.001,33.9114 l 0.02,18.8675 146.277,0 146.276,0 0,-27.6151 c 0,-16.2352 0.338,-28.249 0.822,-29.1533 0.451,-0.8463 2.369,-2.1561 4.257,-2.9122 2.997,-1.1982 8.527,-1.374 43.305,-1.374 l 39.871,0 -1.837,-1.9079 c -5.772,-5.9898 -12.517,-19.7201 -14.377,-29.2648 -1.669,-8.5575 -0.653,-25.4073 2.031,-33.7155 3.975,-12.3031 12.381,-23.7246 27.569,-37.46 16.605,-15.0165 27.826,-22.6015 57.001,-38.5318 6.801,-3.7135 13.765,-7.9054 15.476,-9.3156 l 3.11,-2.5642 0,-9.287 0,-9.287 -2.331,-0.8286 c -4.652,-1.6529 -6.608,-3.2279 -8.528,-6.8678 -3.296,-6.2436 -0.906,-13.0074 5.943,-16.8351 l 3.645,-2.0373 -2.714,3.1116 c -3.599,4.1273 -4.429,8.4742 -2.187,11.4918 2.276,3.0699 7.219,4.6278 12.909,4.0696 10.553,-1.0355 13.25,-8.8214 5.602,-16.1676 -1.901,-1.8287 -2.137,-2.3184 -0.889,-1.8616 6.318,2.3121 11.236,9.1821 10.262,14.3352 -1.049,5.559 -3.776,8.4733 -10.05,10.7454 l -2.331,0.8446 0,9.7902 0,9.7902 3.865,2.7386 c 2.124,1.5063 11.188,6.6965 20.139,11.534 23.823,12.8748 39.151,23.693 54.643,38.566 13.903,13.3474 21.548,24.8743 24.877,37.511 2.495,9.469 2.508,24.5082 0.03,33.8446 -2.196,8.2725 -6.639,17.5387 -11.152,23.2477 -1.85,2.3442 -3.367,4.3684 -3.367,4.4987 0,0.1307 17.267,0.1222 38.371,-0.016 21.104,-0.139 40.041,-0.013 42.082,0.2782 2.238,0.3203 4.51,1.3326 5.723,2.546 l 2.015,2.0137 0,27.5979 0,27.5979 145.853,0 145.852,0 0.02,-18.8676 c 0.01,-10.3771 0.379,-20.5847 0.856,-22.6834 0.463,-2.0989 2.452,-7.2503 4.431,-11.4478 l 3.595,-7.6318 0.253,-45.5158 0.253,-45.5158 -5.626,-9.7974 -5.626,-9.7975 -0.168,-7.6497 -0.169,-7.6498 2.331,7e-4 c 1.281,0 2.331,0.3835 2.331,0.8488 0,0.4661 2.098,0.8479 4.663,0.8479 l 4.664,0 0,-30.6091 0,-30.6092 -3.393,-3.8533 -3.392,-3.8534 0,-7.9364 c 0,-7.3711 0.126,-7.9364 1.698,-7.9364 0.94,0 1.694,0.5651 1.694,1.2719 0,0.848 0.848,1.272 2.542,1.272 l 2.541,0 0,-33.3072 0,-33.3071 2.993,-6.2459 c 1.643,-3.4352 4.071,-7.6219 5.389,-9.3038 4.786,-6.1092 4.81,-6.3762 1.049,-12.0049 -7.615,-11.4034 -6.733,-22.6106 2.626,-33.379 l 2.883,-3.3189 3.531,3.7429 c 5.008,5.3064 7.02,9.9673 7.069,16.3728 0.02,2.9178 -0.379,6.8086 -0.86,8.6463 -1.252,4.6439 -5.566,11.1808 -7.602,11.516 -1.518,0.2486 -1.294,0.807 2.128,5.3235 4.348,5.7344 7.431,11.4933 9.731,18.1765 1.433,4.1699 1.585,7.549 1.585,35.8463 l 0,31.2425 2.119,0 c 1.32,0 2.12,-0.4805 2.12,-1.272 0,-0.7915 0.801,-1.2719 2.12,-1.2719 2.108,0 2.12,0.051 2.12,7.7137 l 0,7.7137 -3.393,3.8533 -3.392,3.8534 0,30.8319 0,30.8318 4.24,0 c 2.331,0 4.24,-0.3835 4.24,-0.8479 0,-0.4666 1.146,-0.848 2.541,-0.848 l 2.542,0 0,7.4419 0,7.4419 -5.54,9.5625 -5.539,9.5625 0.211,46.3821 0.21,46.3821 3.094,6.3598 c 4.749,9.772 4.954,11.204 4.959,34.5818 0,18.9975 0.169,21.4983 1.383,21.9665 0.83,0.3161 1.69,-0.031 2.162,-0.8745 1.062,-1.9008 3.405,-1.7647 6.098,0.354 l 2.234,1.7575 0,44.0334 0,44.0334 -542.707,0 -542.707,0 0,-43.5956 z m 29.679,-331.2115 c 0,-13.0023 -0.169,-15.2636 -1.273,-15.2636 -1.083,0 -1.273,2.2611 -1.273,15.2636 0,13.0024 0.169,15.2637 1.273,15.2637 1.083,0 1.273,-2.2612 1.273,-15.2637 z m 13.375,0.2107 -0.21,-15.0516 -3.182,-0.2613 -3.182,-0.2613 0,15.3148 0,15.3148 3.409,0 3.414,0 -0.211,-15.0516 z m 9.328,0.068 c -0.169,-11.0628 -0.51,-15.074 -1.29,-15.3344 -0.822,-0.2739 -1.058,3.0918 -1.058,14.9818 0,13.1684 0.169,15.3343 1.29,15.3343 1.117,0 1.26,-2.0276 1.062,-14.9817 z m 983.001,-0.2824 c 0,-12.2486 -0.169,-14.4157 -1.273,-14.4157 -1.083,0 -1.273,2.1671 -1.273,14.4157 0,12.2486 0.169,14.4156 1.273,14.4156 1.083,0 1.273,-2.1671 1.273,-14.4156 z m 13.568,0 0,-14.4157 -3.393,0 -3.393,0 0,14.4157 0,14.4156 3.393,0 3.393,0 0,-14.4156 z m 8.479,0 c 0,-9.0451 -0.337,-14.4157 -0.851,-14.4157 -0.535,0 -0.847,5.3706 -0.847,14.4157 0,9.0451 0.337,14.4156 0.847,14.4156 0.535,0 0.851,-5.3705 0.851,-14.4156 z"
       id="path4147"
       inkscape:connector-curvature="0" />
  </g>
</svg>
